<!-- Proxy-Sync: 代理同步方法，橙色圆形 + S -->
<svg xmlns="http://www.w3.org/2000/svg" width="16" height="16" viewBox="0 0 16 16">
  <g fill="none" fill-rule="evenodd">
    <circle cx="8" cy="8" r="7" fill="#EDA200" fill-opacity=".6"/>
    <path fill="#231F20" fill-opacity=".7" d="M10.5,5.5 C10.5,4.5 9.5,4 8,4 C6.5,4 5.5,4.5 5.5,5.5 C5.5,6.5 6.5,7 8,7.5 C9.5,8 10.5,8.5 10.5,9.5 C10.5,10.5 9.5,12 8,12 C6.5,12 5.5,11 5.5,10 L6.5,10 C6.5,10.5 7,11 8,11 C9,11 9.5,10.5 9.5,10 C9.5,9.5 9,9 8,8.5 C6.5,8 5.5,7.5 5.5,6 C5.5,5 6.5,4 8,4 C9.5,4 10.5,4.5 10.5,5.5 Z"/>
  </g>
</svg>
